<svg width="20" height="20" viewBox="0 0 20 20" fill="none" xmlns="http://www.w3.org/2000/svg">
<path d="M17.4101 8.58576C17.5154 7.87918 17.4809 7.1558 17.3065 6.46026C17.0761 5.54143 16.6016 4.67126 15.883 3.95272C15.1645 3.23418 14.2943 2.75971 13.3755 2.52932C12.68 2.35491 11.9566 2.32037 11.25 2.4257" stroke="#07689F" stroke-linecap="round" stroke-linejoin="round"/>
<path d="M14.2454 8.25144C14.3583 7.49452 14.1233 6.69577 13.5407 6.11311C12.958 5.53044 12.1592 5.29548 11.4023 5.40831" stroke="#07689F" stroke-linecap="round" stroke-linejoin="round"/>
<path d="M5.99109 3.66406C6.29384 3.66406 6.57275 3.82824 6.71967 4.09292L7.73905 5.92909C7.8725 6.16951 7.87875 6.4603 7.7558 6.70626L6.7738 8.67026C6.7738 8.67026 7.05838 10.1334 8.24938 11.3244C9.44038 12.5154 10.8986 12.795 10.8986 12.795L12.8623 11.8132C13.1084 11.6901 13.3994 11.6965 13.6399 11.8302L15.4813 12.854C15.7457 13.001 15.9097 13.2798 15.9097 13.5823V15.6963C15.9097 16.7728 14.9098 17.5503 13.8897 17.2061C11.7948 16.4993 8.5428 15.1533 6.48163 13.0921C4.42042 11.031 3.0745 7.77901 2.36761 5.68405C2.02344 4.66401 2.80098 3.66406 3.8775 3.66406H5.99109Z" stroke="#07689F" stroke-linejoin="round"/>
</svg>
