<svg width="16" height="16" viewBox="0 0 16 16" fill="none" xmlns="http://www.w3.org/2000/svg">
<path d="M12.3377 4.87695L12.298 5.10763C11.773 7.78825 9.99121 8.71095 7.70831 8.71095H6.54698C6.41256 8.71122 6.28264 8.75943 6.18057 8.84691C6.07851 8.9344 6.011 9.05541 5.99017 9.18821L5.3936 12.9586L5.22656 14.0245C5.21958 14.0669 5.22199 14.1104 5.23362 14.1518C5.24525 14.1932 5.26582 14.2316 5.29388 14.2642C5.32193 14.2968 5.3568 14.3228 5.39602 14.3405C5.43524 14.3582 5.47785 14.3671 5.52087 14.3665H7.58104C7.69916 14.368 7.81391 14.3271 7.90441 14.2512C7.99492 14.1753 8.05517 14.0695 8.07422 13.9529V13.8495L8.45602 11.3916V11.2563C8.47333 11.1383 8.53284 11.0306 8.62352 10.953C8.7142 10.8755 8.8299 10.8335 8.94919 10.8348H9.25941C11.256 10.8348 12.815 10.0393 13.2366 7.65302C13.3591 7.25063 13.3855 6.82511 13.3137 6.41066C13.2419 5.99621 13.0738 5.60439 12.823 5.26672C12.683 5.11184 12.5192 4.98027 12.3377 4.87695Z" fill="#179BD7"/>
<path d="M11.7866 4.66173L11.54 4.5981L11.2775 4.55037C10.9405 4.49962 10.6001 4.47568 10.2593 4.47878H7.15715C7.03922 4.47944 6.92544 4.52232 6.83642 4.59966C6.7474 4.67701 6.68905 4.78369 6.67193 4.90036L6.01172 9.0764V9.19571C6.03254 9.06291 6.10006 8.94189 6.20212 8.85441C6.30418 8.76693 6.4341 8.71872 6.56852 8.71845H7.72986C10.0128 8.71845 11.7945 7.79575 12.3195 5.11513C12.3195 5.03559 12.3195 4.95604 12.3593 4.88445C12.2215 4.81152 12.0778 4.75032 11.9298 4.7015L11.7866 4.66173Z" fill="#222D65"/>
<path d="M6.6654 4.89271C6.68251 4.77604 6.74087 4.66936 6.82989 4.59201C6.91891 4.51467 7.03269 4.47178 7.15061 4.47113H10.2528C10.5962 4.46761 10.9393 4.49155 11.2789 4.54272L11.5414 4.59045L11.788 4.65408H11.9073C12.0553 4.70307 12.199 4.76426 12.3369 4.83703C12.4375 4.44292 12.4416 4.03036 12.3488 3.63434C12.256 3.23831 12.0691 2.87049 11.8039 2.56209C11.2153 1.89392 10.1494 1.59961 8.78921 1.59961H4.81203C4.67761 1.59988 4.54769 1.64809 4.44563 1.73557C4.34357 1.82305 4.27605 1.94407 4.25523 2.07687L2.61663 12.5687C2.60985 12.6168 2.61339 12.6657 2.62701 12.7123C2.64063 12.759 2.66402 12.8021 2.69562 12.839C2.72723 12.8759 2.76632 12.9056 2.81031 12.9262C2.85429 12.9468 2.90215 12.9578 2.95071 12.9584H5.3927L6.00519 9.06875L6.6654 4.89271Z" fill="#253B80"/>
</svg>
