<svg width="17" height="16" viewBox="0 0 17 16" fill="none" xmlns="http://www.w3.org/2000/svg">
<path d="M10.4987 15.1663H6.4987C2.8787 15.1663 1.33203 13.6197 1.33203 9.99967V5.99967C1.33203 2.37967 2.8787 0.833008 6.4987 0.833008H10.4987C14.1187 0.833008 15.6654 2.37967 15.6654 5.99967V9.99967C15.6654 13.6197 14.1187 15.1663 10.4987 15.1663ZM6.4987 1.83301C3.42536 1.83301 2.33203 2.92634 2.33203 5.99967V9.99967C2.33203 13.073 3.42536 14.1663 6.4987 14.1663H10.4987C13.572 14.1663 14.6654 13.073 14.6654 9.99967V5.99967C14.6654 2.92634 13.572 1.83301 10.4987 1.83301H6.4987Z" fill="white"/>
</svg>
