<svg width="16" height="16" viewBox="0 0 16 16" fill="none" xmlns="http://www.w3.org/2000/svg">
<g clip-path="url(#clip0_7304_5126)">
<path d="M8.00065 14.6663C9.84158 14.6663 11.5083 13.9201 12.7147 12.7137C13.9211 11.5073 14.6673 9.84061 14.6673 7.99967C14.6673 6.15874 13.9211 4.49207 12.7147 3.28563C11.5083 2.0792 9.84158 1.33301 8.00065 1.33301C6.15972 1.33301 4.49305 2.0792 3.2866 3.28563C2.08018 4.49207 1.33398 6.15874 1.33398 7.99967C1.33398 9.84061 2.08018 11.5073 3.2866 12.7137C4.49305 13.9201 6.15972 14.6663 8.00065 14.6663Z" stroke="#A80102" stroke-linejoin="round"/>
<path d="M8.33268 11.5003C8.33268 11.6844 8.18344 11.8337 7.99935 11.8337C7.81526 11.8337 7.66602 11.6844 7.66602 11.5003C7.66602 11.3162 7.81526 11.167 7.99935 11.167C8.18344 11.167 8.33268 11.3162 8.33268 11.5003Z" fill="#A80102" stroke="#A80102"/>
<path d="M8 4V9.33333" stroke="#A80102" stroke-linecap="round" stroke-linejoin="round"/>
</g>
<defs>
<clipPath id="clip0_7304_5126">
<rect width="16" height="16" fill="white"/>
</clipPath>
</defs>
</svg>
