<svg width="16" height="16" viewBox="0 0 16 16" fill="none" xmlns="http://www.w3.org/2000/svg">
<path d="M12.3397 4.87695L12.2999 5.10763C11.7749 7.78825 9.99317 8.71095 7.71027 8.71095H6.54893C6.41451 8.71122 6.28459 8.75943 6.18253 8.84691C6.08046 8.9344 6.01295 9.05541 5.99213 9.18821L5.39555 12.9586L5.22851 14.0245C5.22153 14.0669 5.22394 14.1104 5.23557 14.1518C5.2472 14.1932 5.26777 14.2316 5.29583 14.2642C5.32389 14.2968 5.35875 14.3228 5.39797 14.3405C5.43719 14.3582 5.47981 14.3671 5.52282 14.3665H7.583C7.70111 14.368 7.81586 14.3271 7.90637 14.2512C7.99687 14.1753 8.05713 14.0695 8.07617 13.9529V13.8495L8.45798 11.3916V11.2563C8.47529 11.1383 8.5348 11.0306 8.62547 10.953C8.71615 10.8755 8.83186 10.8335 8.95115 10.8348H9.26137C11.2579 10.8348 12.817 10.0393 13.2385 7.65302C13.3611 7.25063 13.3875 6.82511 13.3156 6.41066C13.2438 5.99621 13.0757 5.60439 12.8249 5.26672C12.6849 5.11184 12.5211 4.98027 12.3397 4.87695Z" fill="#179BD7"/>
<path d="M11.7905 4.66173L11.5439 4.5981L11.2814 4.55037C10.9444 4.49962 10.604 4.47568 10.2633 4.47878H7.16105C7.04313 4.47944 6.92935 4.52232 6.84033 4.59966C6.75131 4.67701 6.69295 4.78369 6.67584 4.90036L6.01562 9.0764V9.19571C6.03645 9.06291 6.10396 8.94189 6.20602 8.85441C6.30809 8.76693 6.43801 8.71872 6.57243 8.71845H7.73377C10.0167 8.71845 11.7984 7.79575 12.3234 5.11513C12.3234 5.03559 12.3234 4.95604 12.3632 4.88445C12.2254 4.81152 12.0817 4.75032 11.9337 4.7015L11.7905 4.66173Z" fill="#222D65"/>
<path d="M6.66735 4.89271C6.68447 4.77604 6.74282 4.66936 6.83184 4.59201C6.92086 4.51467 7.03464 4.47178 7.15257 4.47113H10.2548C10.5982 4.46761 10.9413 4.49155 11.2809 4.54272L11.5434 4.59045L11.79 4.65408H11.9093C12.0573 4.70307 12.2009 4.76426 12.3388 4.83703C12.4394 4.44292 12.4435 4.03036 12.3507 3.63434C12.258 3.23831 12.0711 2.87049 11.8059 2.56209C11.2172 1.89392 10.1514 1.59961 8.79116 1.59961H4.81399C4.67956 1.59988 4.54964 1.64809 4.44758 1.73557C4.34552 1.82305 4.27801 1.94407 4.25718 2.07687L2.61858 12.5687C2.6118 12.6168 2.61534 12.6657 2.62896 12.7123C2.64258 12.759 2.66597 12.8021 2.69758 12.839C2.72918 12.8759 2.76828 12.9056 2.81226 12.9262C2.85624 12.9468 2.90411 12.9578 2.95267 12.9584H5.39465L6.00714 9.06875L6.66735 4.89271Z" fill="#253B80"/>
</svg>
